<svg xmlns="http://www.w3.org/2000/svg" viewBox="0 0 72.15 79.84">
    <defs>
        <style>
            .cls-2 {
                fill-rule: evenodd;
                fill: #fff;
            }
        </style>
    </defs>
    <g id="Warstwa_2" data-name="Warstwa 2">
        <g id="Warstwa_1-2" data-name="Warstwa 1">
            <path
                d="M4.23 33.47a31.26 31.26 0 015.92-16.78c.31-.42.69-.86 1-1.26a31.31 31.31 0 019-7.42A32.75 32.75 0 0135 3.94 26.54 26.54 0 0034.93 0a36.55 36.55 0 00-24.34 10.15L8 12.91C4.19 17.8 1.64 22.56.57 29a33.82 33.82 0 00-.44 4.47zm41.65-28.1a33.5 33.5 0 017.29 3.32A37.1 37.1 0 0157 11.48a28.13 28.13 0 013.42 3.31 30.1 30.1 0 016.51 12 29.78 29.78 0 011 6.66H72A31.28 31.28 0 0071 26a33.58 33.58 0 00-7-13.37c-1.68-2-1.85-1.83-2.91-3.05a37.64 37.64 0 00-5-3.87c-1.72-1.11-5.76-3.33-8.08-3.83zm-.31 28.1a8.29 8.29 0 00-2.31-4.9 9.77 9.77 0 00-13.29-1 11.86 11.86 0 00-1.16 1.12 7.52 7.52 0 00-1 1.31 9.22 9.22 0 00-1.22 3.49h2.28a7.3 7.3 0 0114.3 0zm-37.79 0A26.54 26.54 0 0113 18.69 28.19 28.19 0 0121.9 11a29.15 29.15 0 0113.31-3.68V5.11a31 31 0 00-24 12.23 28.27 28.27 0 00-5.7 16.13zM37 14.07c6.18.55 9.71 2.22 13.24 5.19 3.07 2.59 6.23 7.17 6.78 11.4l1.88.07a5.57 5.57 0 01-1.72.68c.07.71.11 1.39.14 2.06h2.41a21.9 21.9 0 00-5.16-13 22 22 0 00-1.75-1.93 24.13 24.13 0 00-15.54-6.63zm-11.62 19.4a10.46 10.46 0 013.8-6.81 11.09 11.09 0 0113.55-.21l1.4 1.27c.24.24.29.4.55.71a8.91 8.91 0 012.11 5h2.31c0-.8-.11-1.07-.6-1.15 0 0 .34 0 .28-.61a13.72 13.72 0 00-2.07-4.36 7 7 0 00-.75-1 16.38 16.38 0 00-3.11-2.48c-7-4.11-16.52-1-19.16 6.84a11.77 11.77 0 00-.58 2.77zM44.13 8.38c1.87.94 3 .74 6.72 2.92a27.29 27.29 0 0112.62 16.22 26.49 26.49 0 01.94 5.95h2.32c-.23-7.12-3.22-13.71-8.52-19.29a32.7 32.7 0 00-5.78-4.52c-1.24-.75-5.56-3.07-7.21-3.16a10.64 10.64 0 00-1.09 1.88zm-6.74 2.31a30.42 30.42 0 017.73 1.63 25.24 25.24 0 016.12 3.34 23.67 23.67 0 018.09 10.5 21.91 21.91 0 011.53 7.31h2.31a26.49 26.49 0 00-3.63-12 27.24 27.24 0 00-9.35-9.16 25.31 25.31 0 00-6.65-2.81 1 1 0 00-.47.48c0-.51.09-.36 0-.63a25.28 25.28 0 00-5.3-.79l-.23 1.09c0 .36-.09.67-.1 1zm-26.1 22.78A22.7 22.7 0 0114 23.61a24.17 24.17 0 018.16-8.82 25.42 25.42 0 0113.24-4.07V8.54c-1.84-.27-6.36.79-8 1.32a27.72 27.72 0 00-11.49 7.35c-.36.42-.72.74-1.09 1.19A27.31 27.31 0 0012 22.65a25.39 25.39 0 00-3 10.82zm24.13-4.62a5.94 5.94 0 00-5.22 4.62H42a6 6 0 00-6.55-4.62zm-20.61 4.62a19.62 19.62 0 013.78-10.65 21.47 21.47 0 0117-8.73l-.07-2.18C31 11.74 26 13.77 23.05 15.66a22.85 22.85 0 00-10.58 17.81zm38.91-1.35q0 .71.06 1.35h2.27c0-.55 0-1.13-.07-1.74zm-35.38 1.35a17.18 17.18 0 0112.15-15.14 26.27 26.27 0 015.26-.89l-.23-2.17A19.68 19.68 0 0016 33.47zm31.84-1.07c0 .36.07.72.09 1.07h2.34c0-.4-.07-.8-.14-1.2zm-28.33 1.07a13.86 13.86 0 011.66-5.42 14.37 14.37 0 0112.33-7.18v-2.2A16.56 16.56 0 0025.4 22.4a18 18 0 00-3.9 4.6 15.27 15.27 0 00-1.94 6.48zm14.7-16A18.73 18.73 0 0145.43 20c.93.58 1.47 1.05 2.23 1.59a19.56 19.56 0 013.57 4 15.56 15.56 0 012.22 5.33l2.22-.23c.2-2.11-2.77-7.09-4.62-9-.2-.21-.4-.33-.61-.53s-.69-.78-1.07-1.08a21.25 21.25 0 00-12.51-4.8zm-.42 3.4a14.49 14.49 0 0112 6.44A11.4 11.4 0 0150 31.67l2.25-.52c-.66-3.62-2.92-6.42-5.39-8.66-1.7-1.53-7-4.26-10.42-3.77zM38.18 4a25.6 25.6 0 013.22.34c1 .16 2 .46 2.91.58l.93-3.82a35.22 35.22 0 00-6.59-1zm-.41 3.36a47.88 47.88 0 015.7.85L44 6.15a19.79 19.79 0 00-6-1z"
                fill-rule="evenodd" fill="#e6813e" />
            <path class="cls-2"
                d="M5.16 50.73a.88.88 0 00.27-.65.92.92 0 00-.89-.9h-.92V51h.92a.82.82 0 00.62-.26zm-1.54-5.17h.92a.82.82 0 00.62-.26.88.88 0 00.27-.65V41a.91.91 0 00-.25-.63.85.85 0 00-.63-.26h-.93zm5.43-.84a4.38 4.38 0 01-.91 2.65A4.44 4.44 0 019.05 50v.1a4.33 4.33 0 01-1.34 3.2 4.3 4.3 0 01-3.15 1.31H0V36.52h4.54a4.36 4.36 0 013.17 1.31A4.3 4.3 0 019.05 41zm5.81.85a.92.92 0 00.65-.26.91.91 0 00.26-.65v-3.61a.9.9 0 00-.26-.64.88.88 0 00-.65-.26H14v5.42zm5.14 9h-3.61l-.62-4.35v-.17a1.08 1.08 0 00-.37-.64 1 1 0 00-.67-.27H14v5.43h-3.66V36.52h4.55a4.39 4.39 0 013.18 1.32A4.33 4.33 0 0119.38 41v3.65a4.32 4.32 0 01-1.1 2.95 5 5 0 011.09 2.45v.1zm4.18-14.47v5.42h3.62v3.62h-3.62V51h4.34v3.61h-8V36.52h8v3.62zm20 14.47h-3.61V40.68a.89.89 0 00-.27-.68.85.85 0 00-.63-.26.84.84 0 00-.67.26.89.89 0 00-.27.65v13.96h-3.58V40.68a.92.92 0 00-.26-.65.93.93 0 00-1.23-.03h-.06l-.06.05a.33.33 0 010 .06l-.05.07v.11a.22.22 0 000 .09v14.23h-3.77v-14a4.54 4.54 0 014.51-4.51h.17a4.42 4.42 0 012.55.91 4.43 4.43 0 012.72-.91 4.54 4.54 0 014.52 4.53zM53.52 51v3.61h-8V36.52h3.62V51zm4.42-10.86v5.42h3.62v3.62h-3.62V51h4.35v3.61h-8V36.52h8v3.62zm14.21 0h-2.74v14.48h-3.6V40.14h-2.7v-3.62h9zM12.14 69.09c.37-.49.7-1 1-1.39l1.31-2.15.81-1.32c.6-1 1-1.61 1.19-1.88.32-.47.65-.7 1-.7s.35.09.35.27a1.3 1.3 0 01-.13.46c-.07.12-.25.57-.54 1.32a13.84 13.84 0 00-.68 2.58 11 11 0 00-.23 1.72v.46c0 .17.05.35.08.56a9.1 9.1 0 00.84-1.38q.43-.9 1.35-2.85c.58-1.25 1.26-2.55 2-3.89a30.25 30.25 0 012.28-3.36c.42-.54.75-.8 1-.8a.38.38 0 01.3.16.41.41 0 01.09.26 2.72 2.72 0 01-.59.94 31.25 31.25 0 00-2.22 3.28q-1.22 2.09-3 5.91c-.54 1.15-1 2-1.24 2.45a1.24 1.24 0 01-1 .74.79.79 0 01-.74-.43 2.54 2.54 0 01-.25-1.28 15.78 15.78 0 01.47-3.4A12.15 12.15 0 0014.5 67c-.29.51-.58 1-.86 1.46-.41.68-.68 1.13-.81 1.36a4.26 4.26 0 01-.63.86.79.79 0 01-.56.22.6.6 0 01-.57-.33A1.2 1.2 0 0111 70c0-1.51.8-4.22 2.38-8.13.78-1.92 1.23-3.09 1.35-3.52a2.25 2.25 0 01.27-.85.71.71 0 01.53-.24c.28 0 .43.13.43.4a5 5 0 01-.37 1.48c-.27.75-.71 1.81-1.32 3.19-.41 1-.7 1.65-.87 2.13a28.92 28.92 0 00-1.29 4.63zm12.33-5.8c.52 0 .78.32.78.95a6.65 6.65 0 01-1.17 3.21c-.84 1.4-1.67 2.1-2.46 2.1a.84.84 0 01-.8-.51 1.32 1.32 0 01-.14-.62 5.43 5.43 0 01.84-2.65 6.45 6.45 0 011.83-2 2 2 0 011.12-.43zm-1 3.6q-.24-.19-.24-.3s.1-.19.3-.41a2.78 2.78 0 00.86-1.56.3.3 0 00-.05-.15.23.23 0 00-.24-.15c-.19 0-.5.2-.89.6a5.89 5.89 0 00-1.16 1.57A3.66 3.66 0 0021.6 68a.48.48 0 00.09.29.38.38 0 00.31.17c.31 0 .63-.23 1-.68a3.47 3.47 0 00.37-.6 1.91 1.91 0 00.13-.31zm5.53-3.6c.52 0 .78.32.78.95a6.65 6.65 0 01-1.17 3.21q-1.27 2.1-2.46 2.1a.84.84 0 01-.8-.51 1.32 1.32 0 01-.14-.62 5.33 5.33 0 01.84-2.65 6.45 6.45 0 011.83-2 2 2 0 011.12-.48zm-1 3.6q-.24-.19-.24-.3s.1-.19.3-.41a2.72 2.72 0 00.86-1.56.23.23 0 00-.05-.15.25.25 0 00-.23-.15q-.32 0-.9.6a5.89 5.89 0 00-1.16 1.57 3.66 3.66 0 00-.45 1.51.48.48 0 00.09.29.37.37 0 00.31.17c.31 0 .63-.23 1-.68a3 3 0 00.37-.6 3.31 3.31 0 00.14-.31zm5.71-3c.63-1.33 1.23-2.49 1.8-3.47a17.68 17.68 0 011.11-1.8c.22-.27.42-.41.61-.41a.39.39 0 01.39.39 1.66 1.66 0 01-.32.73c-.92 1.49-1.77 3-2.53 4.53a10.07 10.07 0 00-1.36 4 1.51 1.51 0 00.21.85A1.48 1.48 0 0034 69a.27.27 0 010 .19.48.48 0 01-.15.34.44.44 0 01-.33.16.79.79 0 01-.49-.26 1.53 1.53 0 01-.45-.88c0-.13 0-.4-.07-.78-.67 1.2-1.3 1.8-1.9 1.8a1 1 0 01-.84-.59 1.81 1.81 0 01-.2-.88 5.11 5.11 0 011.08-3A3 3 0 0133 63.64a1.29 1.29 0 01.71.24zm-.33.78a.82.82 0 00-.44-.18 2 2 0 00-1.53 1 4.21 4.21 0 00-.94 2.47.59.59 0 00.05.27.38.38 0 00.35.24c.22 0 .49-.21.81-.64a11.43 11.43 0 001.19-2c.13-.27.25-.54.38-.8a1.57 1.57 0 01.08-.18zm4.89 2.12c-.55.73-.95 1.24-1.21 1.52a7.26 7.26 0 01-.84.8 1.27 1.27 0 01-.74.3.56.56 0 01-.52-.33 1.26 1.26 0 01-.14-.57 5.7 5.7 0 011.24-2.86c.75-1.1 1.3-1.65 1.67-1.65a.36.36 0 01.25.13.34.34 0 01.12.26 1 1 0 01-.37.58 8.25 8.25 0 00-1.38 1.77 3.09 3.09 0 00-.49 1.09c0 .13 0 .19.17.19.38 0 1.2-.82 2.48-2.47.41-.54.66-.84.75-.93a.74.74 0 01.51-.23.43.43 0 01.29.1.26.26 0 01.11.2 5 5 0 01-.46 1 6.66 6.66 0 00-1 2.46q0 .24.21.24c.22 0 .54-.26.94-.79a8.8 8.8 0 001.06-1.88 7 7 0 00.37-1.3c.13-.62.39-.92.77-.92.22 0 .32.12.32.36A7.13 7.13 0 0141 67.24c-1 1.52-1.78 2.28-2.44 2.28-.49 0-.73-.31-.73-.91a4.59 4.59 0 01.5-1.83zm7.73-3.5c.51 0 .78.32.78.95a6.76 6.76 0 01-1.17 3.21q-1.27 2.1-2.46 2.1a.85.85 0 01-.81-.51 1.32 1.32 0 01-.14-.62 5.43 5.43 0 01.84-2.65 6.45 6.45 0 011.83-2 2 2 0 011.13-.48zm-1 3.6c-.16-.13-.23-.23-.23-.3s.09-.19.3-.41a2.75 2.75 0 00.85-1.56.23.23 0 000-.15.23.23 0 00-.23-.15c-.2 0-.5.2-.89.6a5.94 5.94 0 00-1.17 1.57 3.66 3.66 0 00-.5 1.51.48.48 0 00.09.29.4.4 0 00.32.17c.3 0 .62-.23 1-.68a3.47 3.47 0 00.37-.6 1.91 1.91 0 00.13-.31zm3.59-.59a19.86 19.86 0 012.16-2 9 9 0 01.93-.64 1 1 0 01.32-.15c.09 0 .18.07.28.21a.37.37 0 01.09.21c0 .11-.12.27-.37.47-.64.51-1 .89-1 1.16s.08.21.25.21a3.23 3.23 0 001.39-.67.53.53 0 01.36-.1.21.21 0 01.15.07.31.31 0 01.09.18c0 .19-.27.48-.8.88a2.69 2.69 0 01-1.59.63 1 1 0 01-.56-.16.51.51 0 01-.22-.48 1 1 0 01.21-.54 9.44 9.44 0 00-1.78 1.83 12.93 12.93 0 00-1.18 2c-.15.29-.32.44-.54.44s-.36-.11-.36-.33A7.58 7.58 0 0147 67.8a13.21 13.21 0 011.72-3.25c.37-.48.67-.71.92-.71a.39.39 0 01.23.07.31.31 0 01.13.24.77.77 0 01-.2.4l-.5.64a5.68 5.68 0 00-.66 1.11zm8.14-.94a7.09 7.09 0 00-.62 2.34 1.28 1.28 0 00.15.65.57.57 0 00.51.33 2.36 2.36 0 001.5-.87 7.87 7.87 0 00.94-1.12c.16-.26.32-.39.46-.39a.2.2 0 01.22.22A3.71 3.71 0 0159 68a3.48 3.48 0 01-2.52 1.66 1.07 1.07 0 01-1-.7 2.69 2.69 0 01-.23-1.11 6.25 6.25 0 01.23-1.44 12 12 0 00-1.88 2.51c-.22.36-.43.55-.61.55a.33.33 0 01-.25-.13.42.42 0 01-.11-.26 11.56 11.56 0 011-2.55 33.06 33.06 0 013.77-6.38 10.86 10.86 0 012-2 2.34 2.34 0 011.25-.6.51.51 0 01.37.17.72.72 0 01.21.52 4.07 4.07 0 01-.85 2.08 18.43 18.43 0 01-3 3.16 16.82 16.82 0 01-2.15 1.61l-.69 1.46a12.58 12.58 0 011.89-1.78 8.62 8.62 0 011.21-.64 2.05 2.05 0 01.74-.21.31.31 0 01.22.09.28.28 0 01.1.23c0 .21-.14.35-.42.44a5.22 5.22 0 00-1.49.72zm-.81-1.64a13.92 13.92 0 002.91-2.62 9.48 9.48 0 001.09-1.52 1.93 1.93 0 00.29-.74c0-.15-.07-.22-.2-.22-.36 0-1 .55-1.84 1.64a26.06 26.06 0 00-2.25 3.46zM25.92 77.53H27v-.24a1.16 1.16 0 00-.13-.58.44.44 0 00-.38-.21.48.48 0 00-.43.21 1.38 1.38 0 00-.13.69zm1.68 1.06a1.42 1.42 0 01-.35.9 1.1 1.1 0 01-.82.3 1 1 0 01-.87-.37 1.73 1.73 0 01-.3-1.09v-.78a1.93 1.93 0 01.31-1.18 1 1 0 01.85-.42 1.1 1.1 0 01.9.4 1.9 1.9 0 01.31 1.15v.5h-1.71v.24a1.57 1.57 0 00.13.75.46.46 0 00.43.24.46.46 0 00.37-.16 1.08 1.08 0 00.17-.49zm.52 1.13v-1.31h.52a1.21 1.21 0 00.24.61.54.54 0 00.43.21.4.4 0 00.3-.1.38.38 0 00.11-.29.41.41 0 00-.06-.23 1.53 1.53 0 00-.29-.29l-.75-.6a1.34 1.34 0 01-.32-.39 1 1 0 01-.12-.47.91.91 0 01.25-.65A.8.8 0 0129 76a.85.85 0 01.35.08 1.58 1.58 0 01.35.26V76h.47v1.11h-.46a1.34 1.34 0 00-.26-.48.49.49 0 00-.36-.15.31.31 0 00-.34.34.39.39 0 00.06.2 1.16 1.16 0 00.25.24l.68.55a1.61 1.61 0 01.42.46 1 1 0 01.13.51 1 1 0 01-.25.71.86.86 0 01-.65.27.91.91 0 01-.39-.06 1.26 1.26 0 01-.36-.28v.3zm4.11 0h-.45a.63.63 0 01-.5-.17 1.11 1.11 0 01-.14-.66v-2.35h-.39V76h.39v-1.31h.65V76h.45v.51h-.45v2.31c0 .19 0 .3.06.34a.5.5 0 00.27 0h.12zm.61-.38a.44.44 0 01.12-.3.42.42 0 01.3-.12.41.41 0 01.42.42.4.4 0 01-.12.29.39.39 0 01-.3.13.45.45 0 01-.42-.42zm1.54-3.48v-.17a2.29 2.29 0 01.3-1.35 1.13 1.13 0 011-.41 1.18 1.18 0 011.3 1.3 2.84 2.84 0 01-.16.89 6.12 6.12 0 01-.55 1.08l-1.18 1.89h1.32v-.88H37v1.48h-2.64v-.58l1.17-1.9a6.08 6.08 0 00.55-1.07 2.56 2.56 0 00.17-.85.93.93 0 00-.15-.59.62.62 0 00-.48-.17.57.57 0 00-.51.23 2.5 2.5 0 00-.14 1zm5.24 2.43v-2.8a1.28 1.28 0 00-.15-.7.58.58 0 00-.92 0 1.32 1.32 0 00-.15.71v2.83a1.34 1.34 0 00.15.71.58.58 0 00.92 0 1.28 1.28 0 00.15-.7zm.71-2.62v2.42A2.1 2.1 0 0140 79.4a1.31 1.31 0 01-2 0 2.1 2.1 0 01-.33-1.28V75.7a2.12 2.12 0 01.33-1.29 1.29 1.29 0 012 0 2.11 2.11 0 01.34 1.29zm1.17 4v-.5h.5v-4.59h-.5v-.5h1.18v5.14h.5v.5zm4.18-5.64h.66v3.51h.45v.52h-.45v1.1h.45v.51h-1.6v-.51h.49v-1.1h-1.53v-.52zm-1 3.51h1v-2.3z" />
        </g>
    </g>
</svg>